<svg width="543" height="52" viewBox="0 0 543 52" fill="none" xmlns="http://www.w3.org/2000/svg">
<mask id="mask0_393_11998" style="mask-type:alpha" maskUnits="userSpaceOnUse" x="0" y="0" width="543" height="52">
<rect width="543" height="52" fill="#D9D9D9"/>
</mask>
<g mask="url(#mask0_393_11998)">
</g>
<g clip-path="url(#clip0_393_11998)">
<path d="M397.48 13.7334C386.961 13.7334 378.431 22.297 378.431 32.8724C378.431 43.4477 386.961 52.0113 397.48 52.0113C407.999 52.0113 416.529 43.4477 416.529 32.8724C416.529 22.297 407.999 13.7334 397.48 13.7334ZM397.48 44.3468C391.164 44.3468 386.05 39.2108 386.05 32.8611C386.05 26.5114 391.164 21.3755 397.48 21.3755C403.796 21.3755 408.909 26.5114 408.909 32.8611C408.909 39.2108 403.796 44.3468 397.48 44.3468Z" fill="black"/>
<path d="M439.399 13.7334C428.88 13.7334 420.35 22.297 420.35 32.8724C420.35 43.4477 428.88 52.0113 439.399 52.0113C449.918 52.0113 458.448 43.4477 458.448 32.8724C458.448 22.297 449.918 13.7334 439.399 13.7334ZM439.399 44.3468C433.083 44.3468 427.969 39.2108 427.969 32.8611C427.969 26.5114 433.083 21.3755 439.399 21.3755C445.715 21.3755 450.828 26.5114 450.828 32.8611C450.828 39.2108 445.715 44.3468 439.399 44.3468Z" fill="black"/>
<path d="M500.356 13.7334H492.736V52.0113H500.356V13.7334Z" fill="black"/>
<path d="M523.226 13.7334C512.707 13.7334 504.177 22.297 504.177 32.8724C504.177 43.4477 512.707 52.0113 523.226 52.0113C528.171 52.0113 532.677 50.1233 536.06 47.0215L529.98 42.1328C528.092 43.5264 525.754 44.358 523.226 44.358C518.247 44.358 514.022 41.1663 512.448 36.7047H541.893C542.14 35.4684 542.275 34.1873 542.275 32.8724C542.275 22.3083 533.745 13.7334 523.226 13.7334ZM512.448 29.0401C514.022 24.5784 518.247 21.3867 523.226 21.3867C528.204 21.3867 532.43 24.5784 534.003 29.0401H512.448Z" fill="black"/>
<path d="M370.811 13.7334C360.292 13.7334 351.762 22.297 351.762 32.8724V52.0113H359.381V32.8724C359.381 26.5339 364.495 21.3867 370.811 21.3867H374.621V13.7334H370.811Z" fill="black"/>
<path d="M488.926 13.7334H481.307L469.877 25.219V13.7334H462.258V52.0001H469.877V40.5257L481.307 52.0001H488.926V48.8309L473.035 32.8724L488.926 16.9026V13.7334Z" fill="black"/>
<path d="M496.557 7.66458C498.661 7.66458 500.367 5.9488 500.367 3.83229C500.367 1.71577 498.661 0 496.557 0C494.453 0 492.747 1.71577 492.747 3.83229C492.747 5.9488 494.453 7.66458 496.557 7.66458Z" fill="black"/>
<path d="M14.1042 51.8982C6.39464 51.8982 2.65226 48.257 0 42.5816L4.7426 39.6034C5.95634 43.0761 8.20402 46.9983 13.7783 46.9983C17.0936 46.9983 20.1729 44.6157 20.1729 41.1993C20.1729 33.1526 2.41625 34.9282 2.41625 23.6786C2.41625 17.5537 7.21504 13.418 13.4523 13.418C18.0713 13.418 22.207 15.4634 25.0166 19.7677L20.8809 23.0717C19.2289 19.9812 16.4755 18.4303 13.5535 18.4303C9.29414 18.4303 8.09164 21.2399 8.09164 23.1279C8.09164 29.6799 25.8483 28.6909 25.8483 40.6036C25.8483 47.2567 20.274 51.8982 14.0929 51.8982H14.1042Z" fill="black"/>
<path d="M67.2396 51.2356V22.0045L54.0121 38.7722L40.7957 22.0045V51.2356H35.4912V14.1826H40.7957L54.0121 31.3324L67.2396 14.1826H72.5442V51.2356H67.2396Z" fill="black"/>
<path d="M109.687 51.2358L105.944 41.863H89.0755L85.3219 51.2358H79.6465L95.0318 13.8008H99.9767L115.362 51.2358H109.687ZM97.5043 19.9145L91.0085 37.0642H104.034L97.5155 19.9145H97.5043Z" fill="black"/>
<path d="M144.964 51.2356L133.377 34.6927H128.533V51.2356H123.251V14.1826H133.838C142.39 14.1826 145.57 20.094 145.57 24.4433C145.57 29.1184 142.693 32.209 139.007 33.7037L151.369 51.2356H144.975H144.964ZM133.107 18.9926H128.522V29.8939H133.163C138.063 29.8939 139.929 27.2529 139.929 24.2747C139.929 21.0156 137.411 18.9814 133.107 18.9814V18.9926Z" fill="black"/>
<path d="M168.677 18.9819V51.2248H163.383V18.9819H151.628V14.1719H180.409V18.9819H168.677Z" fill="black"/>
<path d="M212.282 51.2356L200.695 34.6927H195.84V51.2356H190.547V14.1826H201.133C209.686 14.1826 212.866 20.094 212.866 24.4433C212.866 29.1184 210.012 32.209 206.314 33.7037L218.654 51.2356H212.271H212.282ZM200.425 18.9926H195.84V29.8939H200.47C205.393 29.8939 207.247 27.2529 207.247 24.2747C207.247 21.0156 204.718 18.9814 200.425 18.9814V18.9926Z" fill="black"/>
<path d="M243.525 51.9998C232.725 51.9998 223.857 44.0543 223.857 32.7035C223.857 21.3528 232.736 13.4072 243.525 13.4072C254.313 13.4072 263.214 21.3528 263.214 32.7035C263.214 44.0543 254.347 51.9998 243.525 51.9998ZM243.525 18.3634C235.691 18.3634 229.465 24.5332 229.465 32.7035C229.465 40.8738 235.691 47.0325 243.525 47.0325C251.358 47.0325 257.584 40.8626 257.584 32.7035C257.584 24.5445 251.347 18.3634 243.525 18.3634Z" fill="black"/>
<path d="M284.882 36.4571H278.645V51.2356H273.352V14.1826H284.545C293.907 14.1826 297.379 19.9142 297.379 25.2075C297.379 32.872 291.142 36.4571 284.871 36.4571H284.882ZM284.163 18.9814H278.656V31.6471H284.399C288.737 31.6471 291.659 29.4556 291.659 25.3086C291.659 22.1169 289.951 18.9814 284.163 18.9814Z" fill="black"/>
<path d="M305.808 51.2356V14.1826H329.251V18.9926H311.112V28.9611H325.284V33.7599H311.112V46.4368H329.251V51.2356H305.808Z" fill="black"/>
</g>
<defs>
<clipPath id="clip0_393_11998">
<rect width="542.274" height="52" fill="white"/>
</clipPath>
</defs>
</svg>
