<svg width="30" height="30" viewBox="0 0 30 30" fill="none" xmlns="http://www.w3.org/2000/svg">
<g clip-path="url(#clip0_37_1966)">
<path d="M23.1001 28.785C22.3801 29.55 21.5251 29.94 20.5201 29.97C19.5151 30 18.7201 29.805 18.1501 29.385C17.5801 28.98 16.7251 28.77 15.6001 28.77C14.4751 28.77 13.5901 28.965 12.9901 29.355C12.3901 29.745 11.6251 29.955 10.6651 30C9.67513 30.045 8.80513 29.655 8.04013 28.815C7.27513 27.975 6.58513 27.105 5.95513 26.19C5.32513 25.26 4.74013 24.15 4.21513 22.905C3.69013 21.645 3.30013 20.34 3.07513 18.96C2.83513 17.595 2.79013 16.215 2.89513 14.85C3.01513 13.485 3.40513 12.225 4.05013 11.07C4.71013 9.915 5.58013 9.015 6.69013 8.34C7.78513 7.665 8.97013 7.32 10.2451 7.305C11.2051 7.275 12.1201 7.485 12.9901 7.935C13.8601 8.385 14.5951 8.61 15.2101 8.61C15.8251 8.61 16.6051 8.355 17.6401 7.83C18.6751 7.305 19.7551 7.11 20.9101 7.23C21.4051 7.26 22.2151 7.44 23.3551 7.77C24.4951 8.115 25.5001 8.925 26.3551 10.215C26.3101 10.26 25.7551 10.755 24.7051 11.67C23.6551 12.6 23.1301 14.01 23.1601 15.9C23.1751 18.18 23.8501 19.755 25.1701 20.625C26.4901 21.51 27.1501 21.96 27.1801 21.975C27.1501 22.02 26.9851 22.485 26.6701 23.34C26.3551 24.21 25.8301 25.155 25.1101 26.19C24.4951 27.135 23.8351 27.975 23.1301 28.74L23.1001 28.785ZM18.5851 0.675C19.3951 0.24 20.1901 0.03 20.9401 0C21.0301 0.87 20.9401 1.725 20.6251 2.565C20.3251 3.405 19.9051 4.155 19.3951 4.785C18.8851 5.415 18.2251 5.94 17.4301 6.36C16.6351 6.78 15.8101 6.96 14.9701 6.885C14.8501 6.045 14.9701 5.19 15.3001 4.35C15.6451 3.51 16.0501 2.805 16.5451 2.235C17.0851 1.605 17.7601 1.08 18.5851 0.645V0.675Z" fill="white"/>
</g>
<defs>
<clipPath id="clip0_37_1966">
<rect width="30" height="30" fill="white"/>
</clipPath>
</defs>
</svg>
