<svg width="22" height="22" viewBox="0 0 22 22" fill="none" xmlns="http://www.w3.org/2000/svg">
<g clip-path="url(#clip0_24_711)">
<path d="M16.9401 21.109C16.4121 21.67 15.7851 21.956 15.0481 21.978C14.3111 22 13.7281 21.857 13.3101 21.549C12.8921 21.252 12.2651 21.098 11.4401 21.098C10.6151 21.098 9.9661 21.241 9.5261 21.527C9.0861 21.813 8.5251 21.967 7.8211 22C7.0951 22.033 6.4571 21.747 5.8961 21.131C5.3351 20.515 4.8291 19.877 4.3671 19.206C3.9051 18.524 3.4761 17.71 3.0911 16.797C2.7061 15.873 2.4201 14.916 2.2551 13.904C2.0791 12.903 2.0461 11.891 2.1231 10.89C2.2111 9.889 2.4971 8.965 2.9701 8.118C3.4541 7.271 4.0921 6.611 4.9061 6.116C5.7091 5.621 6.5781 5.368 7.5131 5.357C8.2171 5.335 8.8881 5.489 9.5261 5.819C10.1641 6.149 10.7031 6.314 11.1541 6.314C11.6051 6.314 12.1771 6.127 12.9361 5.742C13.6951 5.357 14.4871 5.214 15.3341 5.302C15.6971 5.324 16.2911 5.456 17.1271 5.698C17.9631 5.951 18.7001 6.545 19.3271 7.491C19.2941 7.524 18.8871 7.887 18.1171 8.558C17.3471 9.24 16.9621 10.274 16.9841 11.66C16.9951 13.332 17.4901 14.487 18.4581 15.125C19.4261 15.774 19.9101 16.104 19.9321 16.115C19.9101 16.148 19.7891 16.489 19.5581 17.116C19.3271 17.754 18.9421 18.447 18.4141 19.206C17.9631 19.899 17.4791 20.515 16.9621 21.076L16.9401 21.109ZM13.6291 0.495C14.2231 0.176 14.8061 0.022 15.3561 0C15.4221 0.638 15.3561 1.265 15.1251 1.881C14.9051 2.497 14.5971 3.047 14.2231 3.509C13.8491 3.971 13.3651 4.356 12.7821 4.664C12.1991 4.972 11.5941 5.104 10.9781 5.049C10.8901 4.433 10.9781 3.806 11.2201 3.19C11.4731 2.574 11.7701 2.057 12.1331 1.639C12.5291 1.177 13.0241 0.792 13.6291 0.473V0.495Z" fill="black"/>
</g>
<defs>
<clipPath id="clip0_24_711">
<rect width="22" height="22" fill="white"/>
</clipPath>
</defs>
</svg>
