<svg width="209" height="24" viewBox="0 0 209 24" fill="none" xmlns="http://www.w3.org/2000/svg">
<g clip-path="url(#clip0_45_671)">
<path d="M164.255 20.2444H155.233C154.771 20.2444 154.397 19.8708 154.397 19.4096V1.94383C154.397 0.944177 153.639 0.0697422 152.639 0.00504658C151.543 -0.06591 150.631 0.800177 150.631 1.87913V22.1477C150.631 23.1703 151.464 24.0009 152.489 24.0009H164.255C165.28 24.0009 166.112 23.1703 166.112 22.1477V22.0976C166.112 21.075 165.28 20.2444 164.255 20.2444V20.2444Z" fill="#444444"/>
<path d="M52.0932 0H35.3565C34.3167 0 33.4736 0.841044 33.4736 1.87826C33.4736 2.91548 34.3167 3.75652 35.3565 3.75652H41.0052C41.4675 3.75652 41.842 4.13009 41.842 4.59131V22.0591C41.842 23.0024 42.5136 23.8497 43.4508 23.9812C44.6119 24.1461 45.6078 23.2508 45.6078 22.1217V4.59131C45.6078 4.13009 45.9822 3.75652 46.4446 3.75652H52.0932C53.133 3.75652 53.9761 2.91548 53.9761 1.87826C53.9761 0.841044 53.133 0 52.0932 0Z" fill="#444444"/>
<path d="M72.5976 0H59.204C58.1643 0 57.3232 0.841043 57.3232 1.87617V12V22.1197V22.1238C57.3232 23.161 58.1664 24 59.204 24H72.5976C73.6374 24 74.4784 23.159 74.4784 22.1238V22.1197C74.4784 21.0824 73.6353 20.2435 72.5976 20.2435H61.9258C61.4635 20.2435 61.089 19.8699 61.089 19.4087V14.713C61.089 14.2518 61.4635 13.8783 61.9258 13.8783H70.9218C71.9616 13.8783 72.8047 13.0372 72.8047 12C72.8047 10.9628 71.9616 10.1217 70.9218 10.1217H61.9258C61.4635 10.1217 61.089 9.74817 61.089 9.28696V4.5913C61.089 4.13009 61.4635 3.75652 61.9258 3.75652H72.5976C73.6374 3.75652 74.4784 2.91548 74.4784 1.88035V1.87617C74.4784 0.838957 73.6353 0 72.5976 0Z" fill="#444444"/>
<path d="M90.3138 1.1214C90.0899 0.614274 89.6694 0.257405 89.184 0.0967089C89.1798 0.0967089 89.1736 0.092535 89.1694 0.092535C89.1213 0.0779263 89.0731 0.0633176 89.0229 0.0528828C89.0062 0.0487089 88.9916 0.044535 88.9748 0.042448C88.9351 0.0341002 88.8974 0.0278393 88.8577 0.0215785C88.8347 0.0174046 88.8096 0.0153176 88.7865 0.0132306C88.7531 0.00905673 88.7196 0.00905673 88.6861 0.00696977C88.6568 0.00696977 88.6275 0.00488281 88.6003 0.00488281C88.571 0.00488281 88.5418 0.00488281 88.5146 0.00696977C88.4811 0.00696977 88.4476 0.0111437 88.4141 0.0132306C88.3911 0.0153176 88.366 0.0194915 88.343 0.0215785C88.3033 0.0278393 88.2656 0.0341002 88.2259 0.042448C88.2091 0.0466219 88.1945 0.0507959 88.1777 0.0528828C88.1296 0.0654046 88.0794 0.0779263 88.0313 0.092535C88.0271 0.092535 88.0208 0.0967089 88.0166 0.0967089C87.5313 0.257405 87.1108 0.614274 86.8869 1.1214L77.9851 21.3378C77.5666 22.2873 77.9934 23.4101 78.9307 23.8338L78.9411 23.8379C79.8805 24.2616 80.9893 23.8296 81.4077 22.88L83.4894 18.1531C83.6233 17.8505 83.9245 17.6543 84.2551 17.6543H92.9414C93.2741 17.6543 93.5732 17.8505 93.7071 18.1531L95.7888 22.88C96.2072 23.8296 97.316 24.2595 98.2553 23.8379L98.2658 23.8338C99.2052 23.4101 99.6298 22.2873 99.2114 21.3378L90.3138 1.1214ZM85.6254 13.3092L88.2196 7.41984C88.366 7.08801 88.8388 7.08801 88.9853 7.41984L91.5795 13.3092C91.7008 13.5847 91.4979 13.8936 91.1966 13.8936H86.0103C85.7091 13.8936 85.5061 13.5847 85.6275 13.3092H85.6254Z" fill="#444444"/>
<path d="M181.948 1.1214C181.724 0.614274 181.303 0.257405 180.818 0.0967089C180.814 0.0967089 180.807 0.092535 180.803 0.092535C180.755 0.0779263 180.707 0.0633176 180.657 0.0528828C180.64 0.0487089 180.625 0.044535 180.609 0.042448C180.569 0.0341002 180.531 0.0278393 180.491 0.0215785C180.468 0.0174046 180.443 0.0153176 180.42 0.0132306C180.387 0.00905673 180.353 0.00905673 180.32 0.00696977C180.291 0.00696977 180.261 0.00488281 180.234 0.00488281C180.205 0.00488281 180.176 0.00488281 180.148 0.00696977C180.115 0.00696977 180.081 0.0111437 180.048 0.0132306C180.025 0.0153176 180 0.0194915 179.977 0.0215785C179.937 0.0278393 179.899 0.0341002 179.86 0.042448C179.843 0.0466219 179.828 0.0487089 179.812 0.0528828C179.763 0.0654046 179.713 0.0779263 179.665 0.092535C179.661 0.092535 179.655 0.0967089 179.65 0.0967089C179.165 0.257405 178.745 0.614274 178.521 1.1214L169.619 21.3378C169.2 22.2873 169.627 23.4101 170.564 23.8338L170.575 23.8379C171.514 24.2616 172.623 23.8296 173.042 22.88L175.123 18.1531C175.257 17.8505 175.558 17.6543 175.889 17.6543H184.575C184.908 17.6543 185.207 17.8505 185.341 18.1531L187.423 22.88C187.841 23.8296 188.95 24.2595 189.889 23.8379L189.9 23.8338C190.839 23.4101 191.264 22.2873 190.845 21.3378L181.948 1.1214ZM177.259 13.3092L179.853 7.41984C180 7.08801 180.473 7.08801 180.619 7.41984L183.213 13.3092C183.335 13.5847 183.132 13.8936 182.83 13.8936H177.644C177.343 13.8936 177.14 13.5847 177.261 13.3092H177.259Z" fill="#444444"/>
<path d="M125.099 1.70753C125.097 1.67623 125.09 1.64701 125.086 1.61571C125.082 1.5844 125.078 1.55518 125.071 1.52388C125.065 1.49258 125.059 1.46336 125.051 1.43414C125.044 1.40492 125.036 1.37362 125.028 1.3444C125.019 1.31936 125.011 1.29223 125.002 1.26718C124.99 1.23379 124.979 1.19831 124.965 1.16492C124.956 1.14614 124.95 1.12945 124.942 1.11275C124.923 1.07101 124.904 1.03136 124.883 0.991706C124.879 0.983358 124.875 0.97501 124.869 0.966663C124.733 0.722489 124.544 0.503358 124.299 0.334315C124.03 0.146488 123.726 0.0400537 123.419 0.00874932C123.404 0.00874932 123.389 0.00874932 123.375 0.00666237C123.329 0.00248845 123.283 0.000401495 123.237 0.000401495C123.233 0.000401495 123.226 0.000401495 123.222 0.000401495H123.218C123.191 0.000401495 123.163 0.00248845 123.136 0.00457541C123.109 0.00457541 123.082 0.00457541 123.055 0.00874932C123.009 0.0129232 122.963 0.0191841 122.917 0.0275319C122.904 0.0275319 122.894 0.0317058 122.881 0.0337928C122.829 0.0442276 122.776 0.0546624 122.726 0.0692711C122.72 0.0692711 122.714 0.071358 122.707 0.073445C122.655 0.0880537 122.605 0.104749 122.555 0.123532C122.548 0.125619 122.54 0.127706 122.534 0.13188C122.488 0.150662 122.442 0.169445 122.396 0.192402C122.385 0.198662 122.373 0.202836 122.362 0.209097C122.322 0.229967 122.285 0.250836 122.247 0.273793C122.23 0.284228 122.214 0.292575 122.197 0.30301C122.166 0.32388 122.134 0.344749 122.105 0.367706C122.084 0.382315 122.065 0.396923 122.044 0.413619C122.017 0.434489 121.992 0.457445 121.967 0.480402C121.946 0.499184 121.925 0.517967 121.904 0.536749C121.879 0.561793 121.856 0.586836 121.831 0.61188C121.814 0.630662 121.795 0.649445 121.779 0.670315C121.751 0.703706 121.724 0.737097 121.699 0.772576C121.691 0.785097 121.68 0.795532 121.672 0.808054L121.657 0.828923C121.657 0.828923 121.653 0.835184 121.651 0.839358L114.291 11.3555C114.207 11.4745 114.031 11.4745 113.948 11.3555L106.592 0.833097C106.592 0.833097 106.588 0.826836 106.586 0.822662L106.571 0.801793C106.563 0.789271 106.552 0.778836 106.544 0.766315C106.519 0.730836 106.492 0.697445 106.464 0.664054C106.448 0.643184 106.429 0.626489 106.412 0.605619C106.389 0.580576 106.364 0.553445 106.339 0.530489C106.318 0.511706 106.297 0.492923 106.276 0.474141C106.251 0.451184 106.226 0.428228 106.199 0.407358C106.18 0.390662 106.159 0.378141 106.138 0.361445C106.107 0.338488 106.077 0.317619 106.046 0.296749C106.029 0.286315 106.013 0.27588 105.996 0.267532C105.958 0.244575 105.92 0.223706 105.881 0.202836C105.87 0.196575 105.858 0.192402 105.847 0.186141C105.803 0.165271 105.757 0.144402 105.709 0.125619C105.703 0.123532 105.695 0.121445 105.688 0.117271C105.638 0.0984885 105.588 0.0817928 105.536 0.0671841C105.529 0.0671841 105.523 0.0630102 105.517 0.0630102C105.466 0.0484015 105.414 0.0379667 105.362 0.0275319C105.349 0.025445 105.339 0.023358 105.326 0.0212711C105.28 0.0129232 105.234 0.00666237 105.188 0.00248845C105.161 0.000401495 105.134 0.000401495 105.107 -0.00168546C105.079 -0.00168546 105.052 -0.00585938 105.025 -0.00585938H105.021C105.021 -0.00585938 105.01 -0.00585938 105.006 -0.00585938C104.96 -0.00585938 104.914 -0.00168546 104.868 0.000401495C104.853 0.000401495 104.839 0.000401495 104.824 0.00248845C104.517 0.0337928 104.213 0.140228 103.943 0.328054C103.699 0.497097 103.51 0.716228 103.374 0.960402C103.37 0.968749 103.364 0.977097 103.36 0.985445C103.339 1.0251 103.32 1.06475 103.301 1.10649C103.293 1.12318 103.284 1.14197 103.278 1.15866C103.263 1.19205 103.253 1.22545 103.24 1.26092C103.232 1.28597 103.224 1.31101 103.215 1.33814C103.207 1.36736 103.199 1.39866 103.192 1.42788C103.184 1.4571 103.178 1.4884 103.171 1.51762C103.165 1.54684 103.161 1.57814 103.157 1.60736C103.153 1.63866 103.148 1.66788 103.144 1.69918C103.14 1.73466 103.14 1.77014 103.138 1.80562C103.138 1.82858 103.134 1.84945 103.134 1.8724V22.1201C103.134 23.1573 103.977 24.0004 105.019 24.0004H105.023C106.063 24.0004 106.908 23.1594 106.908 22.1201V8.52353C106.908 8.31901 107.172 8.23762 107.289 8.40458L112.471 15.8112C112.605 16.0512 112.793 16.2661 113.034 16.431C113.32 16.6293 113.642 16.7357 113.969 16.7587C113.975 16.7587 113.981 16.7587 113.988 16.7587C114.031 16.7608 114.073 16.7628 114.117 16.7628C114.161 16.7628 114.203 16.7628 114.247 16.7587C114.253 16.7587 114.26 16.7587 114.266 16.7587C114.592 16.7357 114.914 16.6293 115.201 16.431C115.442 16.2641 115.628 16.0491 115.764 15.8112L120.946 8.40458C121.063 8.23762 121.327 8.31901 121.327 8.52353V22.1201C121.327 23.1573 122.17 24.0004 123.212 24.0004H123.216C124.256 24.0004 125.101 23.1594 125.101 22.1201V1.88075C125.101 1.85779 125.099 1.83692 125.097 1.81397C125.097 1.77849 125.094 1.74301 125.09 1.70753H125.099Z" fill="#444444"/>
<path d="M139.814 0H132.061C132.061 0 132.044 0 132.036 0C132.028 0 132.019 0 132.011 0C130.971 0 130.128 0.841044 130.128 1.87826V12.313V22.057C130.128 23.0567 130.885 23.9311 131.885 23.9958C132.982 24.0668 133.894 23.2007 133.894 22.1217V15.0261C133.894 14.5649 134.268 14.1913 134.731 14.1913H139.978C143.852 14.1913 147.032 11.2466 147.268 7.54018C147.534 3.39757 144.088 0 139.814 0V0ZM139.978 10.4348H134.731C134.268 10.4348 133.894 10.0612 133.894 9.6V4.59131C133.894 4.13009 134.268 3.75652 134.731 3.75652H139.869C141.722 3.75652 143.325 5.13809 143.411 6.93705C143.503 8.85078 141.927 10.4348 139.978 10.4348V10.4348Z" fill="#444444"/>
<path d="M208.352 0.472148C207.563 -0.222809 206.366 -0.141418 205.678 0.6558L199.902 7.33615C199.734 7.53024 199.435 7.53024 199.268 7.33615L193.531 0.699626C192.872 -0.0621136 191.715 -0.224896 190.918 0.390756C190.039 1.06902 189.922 2.34415 190.638 3.17267L197.588 11.2137C197.653 11.2888 197.69 11.3869 197.69 11.4871V22.0471C197.69 23.053 198.452 23.9337 199.458 23.9984C200.561 24.0694 201.479 23.197 201.479 22.1118V11.485C201.479 11.3848 201.515 11.2888 201.582 11.2116L208.531 3.17058C209.22 2.37545 209.138 1.16502 208.349 0.470061L208.352 0.472148Z" fill="#444444"/>
<path d="M8.72193 17.4367L2.01259 13.5174C1.12136 12.9977 0 13.6384 0 14.6673V22.5059C0 23.5368 1.12136 24.1775 2.01259 23.6558L8.72402 19.7365C9.60479 19.221 9.60479 17.9501 8.72402 17.4346L8.72193 17.4367Z" fill="#919191"/>
<path d="M7.60894 0H3.08374C1.38064 0 0 1.37725 0 3.07617V7.59026C0 9.28919 1.38064 10.6664 3.08374 10.6664H7.60894C9.31204 10.6664 10.6927 9.28919 10.6927 7.59026V3.07617C10.6927 1.37725 9.31204 0 7.60894 0Z" fill="#A5A5A5"/>
<path d="M24.0589 5.33322C24.0589 2.38776 21.6653 0 18.7126 0C15.7598 0 13.3662 2.38776 13.3662 5.33322C13.3662 8.27867 15.7598 10.6664 18.7126 10.6664C21.6653 10.6664 24.0589 8.27867 24.0589 5.33322Z" fill="#707070"/>
<path d="M17.4793 15.3855C17.4793 14.2525 16.5585 13.334 15.4227 13.334C14.2869 13.334 13.3662 14.2525 13.3662 15.3855V21.9489C13.3662 23.0819 14.2869 24.0004 15.4227 24.0004C16.5585 24.0004 17.4793 23.0819 17.4793 21.9489V15.3855Z" fill="#C5C4C5"/>
<path d="M24.0593 15.3855C24.0593 14.2525 23.1386 13.334 22.0028 13.334C20.867 13.334 19.9463 14.2525 19.9463 15.3855V21.9489C19.9463 23.0819 20.867 24.0004 22.0028 24.0004C23.1386 24.0004 24.0593 23.0819 24.0593 21.9489V15.3855Z" fill="#C5C4C5"/>
</g>
<defs>
<clipPath id="clip0_45_671">
<rect width="209" height="24" fill="white"/>
</clipPath>
</defs>
</svg>
