<svg width="22" height="22" viewBox="0 0 22 22" fill="none" xmlns="http://www.w3.org/2000/svg">
<g clip-path="url(#clip0_24_708)">
<path d="M2.0791 1.9908C2.0791 1.6608 2.1561 1.3748 2.3211 1.1218C2.4861 0.868805 2.6951 0.681805 2.9591 0.549805L13.4311 10.9888L2.9701 21.4498C2.7061 21.3068 2.4971 21.0978 2.3321 20.8448C2.1671 20.5918 2.0901 20.3058 2.0901 19.9978V1.9908H2.0791ZM16.7311 7.6778L14.3001 10.1088L5.3131 1.0888L16.7311 7.6778ZM5.3131 20.8888L14.3111 11.8908L16.7421 14.2888L5.3241 20.8778L5.3131 20.8888ZM20.7241 10.2738C20.8341 10.4828 20.9001 10.7248 20.9001 10.9888C20.9001 11.2638 20.8451 11.5058 20.7461 11.7148C20.6361 11.9238 20.4931 12.0998 20.2951 12.2428L17.8641 13.6398L15.2131 10.9888L17.8641 8.3378L20.2621 9.73481C20.4601 9.87781 20.6141 10.0648 20.7241 10.2738Z" fill="black"/>
</g>
<defs>
<clipPath id="clip0_24_708">
<rect width="22" height="22" fill="white"/>
</clipPath>
</defs>
</svg>
