<svg width="30" height="30" viewBox="0 0 30 30" fill="none" xmlns="http://www.w3.org/2000/svg">
<g clip-path="url(#clip0_37_1960)">
<path d="M2.83496 2.715C2.83496 2.265 2.93996 1.875 3.16496 1.53C3.38996 1.185 3.67496 0.93 4.03496 0.75L18.315 14.985L4.04996 29.25C3.68996 29.055 3.40496 28.77 3.17996 28.425C2.95496 28.08 2.84996 27.69 2.84996 27.27V2.715H2.83496ZM22.815 10.47L19.5 13.785L7.24496 1.485L22.815 10.47ZM7.24496 28.485L19.515 16.215L22.83 19.485L7.25996 28.47L7.24496 28.485ZM28.26 14.01C28.41 14.295 28.5 14.625 28.5 14.985C28.5 15.36 28.425 15.69 28.29 15.975C28.14 16.26 27.945 16.5 27.675 16.695L24.36 18.6L20.745 14.985L24.36 11.37L27.63 13.275C27.9 13.47 28.11 13.725 28.26 14.01Z" fill="white"/>
</g>
<defs>
<clipPath id="clip0_37_1960">
<rect width="30" height="30" fill="white"/>
</clipPath>
</defs>
</svg>
