<svg width="139" height="16" viewBox="0 0 139 16" fill="none" xmlns="http://www.w3.org/2000/svg">
<g clip-path="url(#clip0_22_497)">
<path d="M109.241 13.4956H103.242C102.934 13.4956 102.685 13.2465 102.685 12.9391V1.29524C102.685 0.6288 102.181 0.0458438 101.516 0.00271335C100.787 -0.044591 100.181 0.5328 100.181 1.2521V14.7645C100.181 15.4462 100.734 15.9999 101.416 15.9999H109.241C109.923 15.9999 110.476 15.4462 110.476 14.7645V14.7311C110.476 14.0493 109.923 13.4956 109.241 13.4956Z" fill="#444444"/>
<path d="M34.6453 0H23.5149C22.8234 0 22.2627 0.560696 22.2627 1.25217C22.2627 1.94365 22.8234 2.50435 23.5149 2.50435H27.2714C27.5789 2.50435 27.8279 2.75339 27.8279 3.06087V14.7061C27.8279 15.335 28.2745 15.8998 28.8978 15.9875C29.67 16.0974 30.3323 15.5005 30.3323 14.7478V3.06087C30.3323 2.75339 30.5813 2.50435 30.8888 2.50435H34.6453C35.3368 2.50435 35.8975 1.94365 35.8975 1.25217C35.8975 0.560696 35.3368 0 34.6453 0Z" fill="#444444"/>
<path d="M48.2829 0H39.3758C38.6843 0 38.125 0.560696 38.125 1.25078V8V14.7464V14.7492C38.125 15.4407 38.6857 16 39.3758 16H48.2829C48.9744 16 49.5337 15.4393 49.5337 14.7492V14.7464C49.5337 14.055 48.973 13.4957 48.2829 13.4957H41.1859C40.8784 13.4957 40.6293 13.2466 40.6293 12.9391V9.80869C40.6293 9.50122 40.8784 9.25217 41.1859 9.25217H47.1685C47.86 9.25217 48.4207 8.69148 48.4207 8C48.4207 7.30852 47.86 6.74783 47.1685 6.74783H41.1859C40.8784 6.74783 40.6293 6.49878 40.6293 6.1913V3.06087C40.6293 2.75339 40.8784 2.50435 41.1859 2.50435H48.2829C48.9744 2.50435 49.5337 1.94365 49.5337 1.25357V1.25078C49.5337 0.559304 48.973 0 48.2829 0Z" fill="#444444"/>
<path d="M60.0647 0.748254C59.9158 0.410167 59.6362 0.172254 59.3134 0.0651236C59.3106 0.0651236 59.3065 0.062341 59.3037 0.062341C59.2717 0.0526019 59.2397 0.0428628 59.2063 0.0359062C59.1951 0.0331236 59.1854 0.030341 59.1743 0.0289497C59.1478 0.0233845 59.1228 0.0192106 59.0964 0.0150367C59.0811 0.0122541 59.0644 0.0108628 59.0491 0.00947147C59.0268 0.00668886 59.0045 0.00668886 58.9823 0.00529755C58.9628 0.00529755 58.9433 0.00390625 58.9252 0.00390625C58.9058 0.00390625 58.8863 0.00390625 58.8682 0.00529755C58.8459 0.00529755 58.8237 0.00808016 58.8014 0.00947147C58.7861 0.0108628 58.7694 0.0136454 58.7541 0.0150367C58.7277 0.0192106 58.7026 0.0233845 58.6762 0.0289497C58.6651 0.0317323 58.6553 0.0345149 58.6442 0.0359062C58.6122 0.0442541 58.5788 0.0526019 58.5468 0.062341C58.544 0.062341 58.5398 0.0651236 58.5371 0.0651236C58.2143 0.172254 57.9346 0.410167 57.7858 0.748254L51.8658 14.2258C51.5875 14.8589 51.8713 15.6074 52.4946 15.8898L52.5016 15.8926C53.1263 16.175 53.8637 15.887 54.1419 15.254L55.5263 12.1027C55.6153 11.901 55.8157 11.7702 56.0355 11.7702H61.8122C62.0334 11.7702 62.2324 11.901 62.3214 12.1027L63.7058 15.254C63.984 15.887 64.7214 16.1736 65.3461 15.8926L65.3531 15.8898C65.9778 15.6074 66.2602 14.8589 65.9819 14.2258L60.0647 0.748254ZM56.9468 8.87347L58.672 4.94721C58.7694 4.72599 59.0838 4.72599 59.1812 4.94721L60.9064 8.87347C60.9871 9.05712 60.8522 9.26304 60.6518 9.26304H57.2028C57.0024 9.26304 56.8675 9.05712 56.9482 8.87347H56.9468Z" fill="#444444"/>
<path d="M121.008 0.748254C120.859 0.410167 120.58 0.172254 120.257 0.0651236C120.254 0.0651236 120.25 0.062341 120.247 0.062341C120.215 0.0526019 120.183 0.0428628 120.15 0.0359062C120.139 0.0331236 120.129 0.030341 120.118 0.0289497C120.091 0.0233845 120.066 0.0192106 120.04 0.0150367C120.024 0.0122541 120.008 0.0108628 119.992 0.00947147C119.97 0.00668886 119.948 0.00668886 119.926 0.00529755C119.906 0.00529755 119.887 0.00390625 119.869 0.00390625C119.849 0.00390625 119.83 0.00390625 119.812 0.00529755C119.789 0.00529755 119.767 0.00808016 119.745 0.00947147C119.729 0.0108628 119.713 0.0136454 119.697 0.0150367C119.671 0.0192106 119.646 0.0233845 119.62 0.0289497C119.608 0.0317323 119.599 0.0331236 119.588 0.0359062C119.556 0.0442541 119.522 0.0526019 119.49 0.062341C119.487 0.062341 119.483 0.0651236 119.48 0.0651236C119.158 0.172254 118.878 0.410167 118.729 0.748254L112.809 14.2258C112.531 14.8589 112.815 15.6074 113.438 15.8898L113.445 15.8926C114.07 16.175 114.807 15.887 115.085 15.254L116.47 12.1027C116.559 11.901 116.759 11.7702 116.979 11.7702H122.756C122.977 11.7702 123.176 11.901 123.265 12.1027L124.649 15.254C124.927 15.887 125.665 16.1736 126.289 15.8926L126.296 15.8898C126.921 15.6074 127.204 14.8589 126.925 14.2258L121.008 0.748254ZM117.89 8.87347L119.615 4.94721C119.713 4.72599 120.027 4.72599 120.125 4.94721L121.85 8.87347C121.931 9.05712 121.796 9.26304 121.595 9.26304H118.146C117.946 9.26304 117.811 9.05712 117.892 8.87347H117.89Z" fill="#444444"/>
<path d="M83.1991 1.13835C83.1977 1.11749 83.1935 1.09801 83.1908 1.07714C83.188 1.05627 83.1852 1.03679 83.181 1.01592C83.1768 0.99505 83.1727 0.975572 83.1671 0.956094C83.1629 0.936615 83.1574 0.915746 83.1518 0.896268C83.1462 0.879572 83.1407 0.861485 83.1351 0.844789C83.1268 0.822529 83.1198 0.798876 83.1101 0.776616C83.1045 0.764094 83.1003 0.752963 83.0948 0.741833C83.0822 0.714007 83.0697 0.687572 83.0558 0.661137C83.053 0.655572 83.0502 0.650007 83.0461 0.644442C82.9556 0.481659 82.8304 0.335572 82.6676 0.222876C82.4881 0.097659 82.2864 0.0267024 82.0819 0.00583288C82.0721 0.00583288 82.0624 0.00583288 82.0527 0.00444158C82.0221 0.00165897 81.9914 0.000267663 81.9608 0.000267663C81.9581 0.000267663 81.9539 0.000267663 81.9511 0.000267663H81.9483C81.9302 0.000267663 81.9121 0.00165897 81.8941 0.00305027C81.876 0.00305027 81.8579 0.00305027 81.8398 0.00583288C81.8092 0.00861549 81.7786 0.0127894 81.748 0.0183546C81.7396 0.0183546 81.7327 0.0211372 81.7243 0.0225285C81.6895 0.0294851 81.6548 0.0364416 81.6214 0.0461807C81.6172 0.0461807 81.613 0.047572 81.6088 0.0489633C81.5741 0.0587024 81.5407 0.0698329 81.5073 0.0823546C81.5031 0.0837459 81.4975 0.0851372 81.4934 0.0879198C81.4628 0.100442 81.4321 0.112963 81.4015 0.128268C81.3946 0.132442 81.3862 0.135224 81.3793 0.139398C81.3528 0.153311 81.3278 0.167224 81.3028 0.182529C81.2916 0.189485 81.2805 0.19505 81.2694 0.202007C81.2485 0.21592 81.2276 0.229833 81.2081 0.245137C81.1942 0.254876 81.1817 0.264615 81.1678 0.275746C81.1497 0.289659 81.133 0.304963 81.1163 0.320268C81.1024 0.332789 81.0885 0.345311 81.0746 0.357833C81.0579 0.374528 81.0426 0.391224 81.0259 0.40792C81.0148 0.420442 81.0022 0.432963 80.9911 0.446876C80.973 0.469137 80.9549 0.491398 80.9382 0.51505C80.9327 0.523398 80.9257 0.530355 80.9201 0.538702L80.9104 0.552615C80.9104 0.552615 80.9076 0.556789 80.9062 0.559572L76.0116 7.57035C75.956 7.64966 75.8391 7.64966 75.7834 7.57035L70.8916 0.555398C70.8916 0.555398 70.8888 0.551224 70.8874 0.548442L70.8777 0.534528C70.8721 0.526181 70.8652 0.519224 70.8596 0.510876C70.8429 0.487224 70.8248 0.464963 70.8068 0.442702C70.7956 0.428789 70.7831 0.417659 70.772 0.403746C70.7567 0.38705 70.74 0.368963 70.7233 0.353659C70.7094 0.341137 70.6954 0.328615 70.6815 0.316094C70.6648 0.300789 70.6481 0.285485 70.6301 0.271572C70.6175 0.260442 70.6036 0.252094 70.5897 0.240963C70.5688 0.225659 70.5494 0.211746 70.5285 0.197833C70.5174 0.190876 70.5062 0.18392 70.4951 0.178355C70.4701 0.16305 70.445 0.149137 70.4186 0.135224C70.4116 0.13105 70.4033 0.128268 70.3963 0.124094C70.3671 0.110181 70.3365 0.0962677 70.3045 0.0837459C70.3003 0.0823546 70.2948 0.0809633 70.2906 0.0781807C70.2572 0.065659 70.2238 0.0545285 70.189 0.0447894C70.1848 0.0447894 70.1807 0.0420068 70.1765 0.0420068C70.1431 0.0322677 70.1083 0.0253111 70.0735 0.0183546C70.0652 0.0169633 70.0582 0.015572 70.0499 0.0141807C70.0193 0.00861549 69.9887 0.00444158 69.9581 0.00165897C69.94 0.000267663 69.9219 0.000267663 69.9038 -0.00112364C69.8857 -0.00112364 69.8676 -0.00390625 69.8495 -0.00390625H69.8468C69.8468 -0.00390625 69.8398 -0.00390625 69.837 -0.00390625C69.8064 -0.00390625 69.7758 -0.00112364 69.7452 0.000267663C69.7355 0.000267663 69.7257 0.000267663 69.716 0.00165897C69.5114 0.0225285 69.3097 0.0934851 69.1302 0.218702C68.9674 0.331398 68.8422 0.477485 68.7518 0.640268C68.749 0.645833 68.7448 0.651398 68.7421 0.656963C68.7281 0.683398 68.7156 0.709833 68.7031 0.737659C68.6975 0.748789 68.692 0.761311 68.6878 0.772442C68.6781 0.794702 68.6711 0.816963 68.6628 0.840615C68.6572 0.857311 68.6516 0.874007 68.6461 0.892094C68.6405 0.911572 68.6349 0.932442 68.6308 0.95192C68.6252 0.971398 68.621 0.992268 68.6168 1.01175C68.6127 1.03122 68.6099 1.05209 68.6071 1.07157C68.6043 1.09244 68.6015 1.11192 68.5988 1.13279C68.596 1.15644 68.596 1.18009 68.5946 1.20375C68.5946 1.21905 68.5918 1.23296 68.5918 1.24827V14.7467C68.5918 15.4382 69.1525 16.0003 69.8454 16.0003H69.8481C70.5396 16.0003 71.1017 15.4396 71.1017 14.7467V5.68235C71.1017 5.54601 71.277 5.49175 71.3549 5.60305L74.8012 10.5408C74.8902 10.7008 75.0154 10.8441 75.1754 10.954C75.3661 11.0862 75.5803 11.1571 75.7974 11.1724C75.8015 11.1724 75.8057 11.1724 75.8099 11.1724C75.8391 11.1738 75.8669 11.1752 75.8961 11.1752C75.9254 11.1752 75.9532 11.1752 75.9824 11.1724C75.9866 11.1724 75.9908 11.1724 75.9949 11.1724C76.212 11.1571 76.4262 11.0862 76.6168 10.954C76.7768 10.8427 76.9007 10.6994 76.9911 10.5408L80.4374 5.60305C80.5153 5.49175 80.6906 5.54601 80.6906 5.68235V14.7467C80.6906 15.4382 81.2513 16.0003 81.9441 16.0003H81.9469C82.6384 16.0003 83.2005 15.4396 83.2005 14.7467V1.25383C83.2005 1.23853 83.1991 1.22462 83.1977 1.20931C83.1977 1.18566 83.1963 1.16201 83.1935 1.13835H83.1991Z" fill="#444444"/>
<path d="M92.9867 0H87.8305C87.8305 0 87.8194 0 87.8138 0C87.8082 0 87.8027 0 87.7971 0C87.1056 0 86.5449 0.560696 86.5449 1.25217V8.2087V14.7047C86.5449 15.3711 87.0486 15.9541 87.7136 15.9972C88.4427 16.0445 89.0493 15.4671 89.0493 14.7478V10.0174C89.0493 9.70991 89.2983 9.46087 89.6058 9.46087H93.0952C95.6719 9.46087 97.7867 7.49774 97.9439 5.02678C98.1206 2.26504 95.8291 0 92.9867 0V0ZM93.0952 6.95652H89.6058C89.2983 6.95652 89.0493 6.70748 89.0493 6.4V3.06087C89.0493 2.75339 89.2983 2.50435 89.6058 2.50435H93.0228C94.2555 2.50435 95.3213 3.42539 95.3783 4.6247C95.4395 5.90052 94.3919 6.95652 93.0952 6.95652Z" fill="#444444"/>
<path d="M138.568 0.314765C138.044 -0.148539 137.248 -0.0942785 136.79 0.4372L132.949 4.89076C132.837 5.02016 132.638 5.02016 132.527 4.89076L128.712 0.466417C128.274 -0.041409 127.505 -0.149931 126.974 0.260504C126.39 0.712678 126.312 1.56276 126.788 2.11511L131.41 7.47581C131.453 7.5259 131.478 7.59129 131.478 7.65807V14.6981C131.478 15.3687 131.985 15.9558 132.654 15.9989C133.387 16.0462 133.998 15.4647 133.998 14.7412V7.65668C133.998 7.58989 134.021 7.5259 134.066 7.47442L138.688 2.11372C139.146 1.58363 139.091 0.776678 138.567 0.313374L138.568 0.314765Z" fill="#444444"/>
<path d="M5.80035 11.6244L1.33843 9.01158C0.745739 8.66514 0 9.09227 0 9.77818V15.0039C0 15.6912 0.745739 16.1184 1.33843 15.7705L5.80174 13.1577C6.38748 12.814 6.38748 11.9667 5.80174 11.6231L5.80035 11.6244Z" fill="#3B89FF"/>
<path d="M5.06017 0H2.05078C0.918167 0 0 0.918167 0 2.05078V5.06017C0 6.19279 0.918167 7.11096 2.05078 7.11096H5.06017C6.19279 7.11096 7.11096 6.19279 7.11096 5.06017V2.05078C7.11096 0.918167 6.19279 0 5.06017 0Z" fill="#FF5299"/>
<path d="M16.0006 3.55548C16.0006 1.59184 14.4088 0 12.4451 0C10.4815 0 8.88965 1.59184 8.88965 3.55548C8.88965 5.51911 10.4815 7.11096 12.4451 7.11096C14.4088 7.11096 16.0006 5.51911 16.0006 3.55548Z" fill="#00B439"/>
<path d="M11.625 10.2563C11.625 9.50099 11.0126 8.88867 10.2573 8.88867C9.50197 8.88867 8.88965 9.50099 8.88965 10.2563V14.632C8.88965 15.3873 9.50197 15.9996 10.2573 15.9996C11.0126 15.9996 11.625 15.3873 11.625 14.632V10.2563Z" fill="#FFA300"/>
<path d="M16.0009 10.2563C16.0009 9.50099 15.3886 8.88867 14.6333 8.88867C13.8779 8.88867 13.2656 9.50099 13.2656 10.2563V14.632C13.2656 15.3873 13.8779 15.9996 14.6333 15.9996C15.3886 15.9996 16.0009 15.3873 16.0009 14.632V10.2563Z" fill="#FFA300"/>
</g>
<defs>
<clipPath id="clip0_22_497">
<rect width="139" height="16" fill="white"/>
</clipPath>
</defs>
</svg>
