<svg width="50" height="50" viewBox="0 0 50 50" fill="none" xmlns="http://www.w3.org/2000/svg">
<path d="M24.9997 47.9163C12.365 47.9163 2.08301 37.6344 2.08301 24.9997C2.08301 12.365 12.365 2.08301 24.9997 2.08301C37.6344 2.08301 47.9163 12.365 47.9163 24.9997C47.9163 37.6344 37.6344 47.9163 24.9997 47.9163ZM24.9997 4.33648C13.6101 4.33648 4.33648 13.6101 4.33648 24.9997C4.33648 36.3893 13.6101 45.6629 24.9997 45.6629C36.3893 45.6629 45.6629 36.3893 45.6629 24.9997C45.6629 13.6101 36.3893 4.33648 24.9997 4.33648Z" fill="white"/>
<path d="M37.7715 26.8786H24.2507C23.6319 26.8786 23.1201 26.3745 23.1201 25.7481V12.2272C23.1201 11.6008 23.6243 11.0967 24.2507 11.0967C24.8771 11.0967 25.3812 11.6008 25.3812 12.2272V24.6252H37.7791C38.3979 24.6252 38.9097 25.1293 38.9097 25.7557C38.9097 26.3821 38.3979 26.8786 37.7715 26.8786Z" fill="white"/>
</svg>
