<svg width="50" height="50" viewBox="0 0 50 50" fill="none" xmlns="http://www.w3.org/2000/svg">
<path d="M16.5118 45.9999C15.8673 45.9999 15.2562 45.7799 14.7784 45.3799C14.0895 44.7899 13.8118 43.8699 14.1007 43.0499L18.7562 29.3499H10.8562C10.1784 29.3499 9.5451 29.1099 9.06732 28.6799C8.58954 28.2499 8.33398 27.6799 8.33398 27.0699C8.33398 26.4899 8.57843 25.9299 9.02287 25.5099L31.6451 3.71985C32.4562 2.93985 33.734 2.76985 34.7562 3.30985C34.7784 3.31985 34.8118 3.33985 34.834 3.35985C35.8007 3.90985 36.234 4.96985 35.9007 5.95985L31.2451 19.6599H39.1451C40.534 19.6599 41.6673 20.6799 41.6673 21.9399C41.6673 22.5199 41.4229 23.0799 40.9784 23.4999L18.3562 45.2799C17.8895 45.7299 17.2673 45.9799 16.5895 45.9999C16.5673 45.9999 16.5451 45.9999 16.5118 45.9999ZM10.8562 27.3399H20.2562C20.6118 27.3399 20.9451 27.4899 21.1451 27.7499C21.3451 28.0099 21.4229 28.3299 21.3118 28.6399L16.2229 43.6399C16.1895 43.7399 16.2229 43.8599 16.3118 43.9299C16.3895 43.9899 16.4784 44.0199 16.5229 43.9999C16.5784 43.9999 16.6562 43.9799 16.734 43.9099L39.3562 22.1299C39.4118 22.0799 39.4451 22.0099 39.4451 21.9299C39.4451 21.7799 39.3118 21.6499 39.1451 21.6499H29.7451C29.3895 21.6499 29.0562 21.4999 28.8562 21.2399C28.6562 20.9799 28.5784 20.6599 28.6895 20.3499L33.7784 5.34985C33.8229 5.21985 33.7673 5.08985 33.634 5.01985C33.6229 5.00985 33.6118 5.00985 33.6007 4.99985C33.4895 4.94985 33.3562 4.97985 33.2673 5.05985L10.6451 26.8699C10.5895 26.9199 10.5562 26.9899 10.5562 27.0699C10.5562 27.1699 10.6118 27.2399 10.6451 27.2699C10.6895 27.2999 10.7562 27.3399 10.8562 27.3399Z" fill="white"/>
</svg>
