<svg width="50" height="50" viewBox="0 0 50 50" fill="none" xmlns="http://www.w3.org/2000/svg">
<g clip-path="url(#clip0_63_2115)">
<path d="M37.7903 47.8401H12.1603C11.5403 47.8401 11.0303 47.3401 11.0303 46.7101C11.0303 46.0801 11.5303 45.5801 12.1603 45.5801H37.8003C38.4203 45.5801 38.9303 46.0801 38.9303 46.7101C38.9303 47.3401 38.4303 47.8401 37.8003 47.8401H37.7903Z" fill="white"/>
<path d="M24.9694 41.7902C24.3494 41.7902 23.8394 41.2902 23.8394 40.6602V40.1902C23.8394 35.7402 21.0594 34.5102 17.5394 32.9402C13.2494 31.0302 7.89941 28.6502 7.89941 19.3302V5.29016C7.89941 4.67016 8.39941 4.16016 9.02941 4.16016H40.8894C41.5094 4.16016 42.0194 4.66016 42.0194 5.29016V19.3302C42.0194 19.4102 42.0194 19.4902 41.9894 19.5702C42.0094 19.6502 42.0194 19.7202 42.0194 19.8102C42.0194 29.1202 36.6794 31.5002 32.3794 33.4102C28.8594 34.9802 26.0794 36.2102 26.0794 40.6602C26.0794 41.2802 25.5794 41.7902 24.9494 41.7902H24.9694ZM10.1694 6.42016V19.3402C10.1694 27.1902 14.1994 28.9902 18.4694 30.8902C21.0694 32.0502 23.7194 33.2302 25.1094 35.8102C26.5594 33.5602 29.0394 32.4502 31.4794 31.3602C35.7494 29.4602 39.7794 27.6602 39.7794 19.8102C39.7794 19.7302 39.7794 19.6502 39.8094 19.5702C39.7894 19.4902 39.7794 19.4102 39.7794 19.3302V6.42016H10.1694Z" fill="white"/>
<path d="M24.9698 47.8403C24.3498 47.8403 23.8398 47.3403 23.8398 46.7103V40.6603C23.8398 40.0403 24.3398 39.5303 24.9698 39.5303C25.5998 39.5303 26.0998 40.0303 26.0998 40.6603V46.7103C26.0998 47.3303 25.5998 47.8403 24.9698 47.8403Z" fill="white"/>
<path d="M5.29988 20.4997C2.58988 20.4997 0.379883 18.2897 0.379883 15.5797V13.3897C0.379883 10.6797 2.58988 8.46973 5.29988 8.46973C8.00988 8.46973 10.2199 10.6797 10.2199 13.3897V15.5797C10.2199 18.2897 8.00988 20.4997 5.29988 20.4997ZM5.29988 10.7197C3.82988 10.7197 2.62988 11.9197 2.62988 13.3897V15.5797C2.62988 17.0497 3.82988 18.2497 5.29988 18.2497C6.76988 18.2497 7.96988 17.0497 7.96988 15.5797V13.3897C7.96988 11.9197 6.76988 10.7197 5.29988 10.7197Z" fill="white"/>
<path d="M44.7003 20.4997C41.9903 20.4997 39.7803 18.2897 39.7803 15.5797V13.3897C39.7803 10.6797 41.9903 8.46973 44.7003 8.46973C47.4103 8.46973 49.6203 10.6797 49.6203 13.3897V15.5797C49.6203 18.2897 47.4103 20.4997 44.7003 20.4997ZM44.7003 10.7197C43.2303 10.7197 42.0303 11.9197 42.0303 13.3897V15.5797C42.0303 17.0497 43.2303 18.2497 44.7003 18.2497C46.1703 18.2497 47.3703 17.0497 47.3703 15.5797V13.3897C47.3703 11.9197 46.1703 10.7197 44.7003 10.7197Z" fill="white"/>
</g>
<defs>
<clipPath id="clip0_63_2115">
<rect width="50" height="50" fill="white"/>
</clipPath>
</defs>
</svg>
