<svg width="50" height="50" viewBox="0 0 50 50" fill="none" xmlns="http://www.w3.org/2000/svg">
<path d="M7.61517 47.9162C4.56766 47.9162 2.08301 45.4981 2.08301 42.5189V17.1209C2.08301 14.1417 4.56766 11.7236 7.61517 11.7236C10.6627 11.7236 13.1473 14.1417 13.1473 17.1209V42.5189C13.1473 45.4981 10.6627 47.9162 7.61517 47.9162ZM7.61517 14.0548C5.87029 14.0548 4.45508 15.4298 4.45508 17.1209V42.5189C4.45508 44.21 5.87029 45.585 7.61517 45.585C9.36005 45.585 10.7753 44.21 10.7753 42.5189V17.1209C10.7753 15.4298 9.36005 14.0548 7.61517 14.0548Z" fill="white"/>
<path d="M42.3847 47.9162C39.3372 47.9162 36.8525 45.4981 36.8525 42.5189V17.1209C36.8525 14.1417 39.3372 11.7236 42.3847 11.7236C45.4322 11.7236 47.9169 14.1417 47.9169 17.1209V42.5189C47.9169 45.4981 45.4322 47.9162 42.3847 47.9162ZM42.3847 14.0548C40.6398 14.0548 39.2246 15.4298 39.2246 17.1209V42.5189C39.2246 44.21 40.6398 45.585 42.3847 45.585C44.1296 45.585 45.5448 44.21 45.5448 42.5189V17.1209C45.5448 15.4298 44.1296 14.0548 42.3847 14.0548Z" fill="white"/>
<path d="M24.8715 27.1175C21.044 27.1175 17.9321 24.083 17.9321 20.3452V8.85528C17.9321 6.40557 15.8817 4.41419 13.3649 4.41419C10.8481 4.41419 8.79763 6.40557 8.79763 8.85528V12.277C8.79763 12.9171 8.26693 13.4386 7.61561 13.4386C6.9643 13.4386 6.43359 12.9171 6.43359 12.277V8.85528C6.43359 5.11749 9.54544 2.08301 13.3649 2.08301C17.1924 2.08301 20.3042 5.11749 20.3042 8.85528V20.3531C20.3042 22.8028 22.3546 24.7942 24.8715 24.7942C27.3883 24.7942 29.4387 22.8028 29.4387 20.3531V8.85528C29.4387 5.12539 32.5506 2.08301 36.378 2.08301C40.2055 2.08301 43.3174 5.11749 43.3174 8.85528V12.277C43.3174 12.9171 42.7867 13.4386 42.1353 13.4386C41.484 13.4386 40.9533 12.9171 40.9533 12.277V8.85528C40.9533 6.40557 38.9029 4.41419 36.3861 4.41419C33.8693 4.41419 31.8188 6.40557 31.8188 8.85528V20.3531C31.8108 24.0751 28.6989 27.1175 24.8715 27.1175Z" fill="white"/>
</svg>
