<svg width="50" height="50" viewBox="0 0 50 50" fill="none" xmlns="http://www.w3.org/2000/svg">
<path d="M33.434 47.9165C33.0664 47.9165 32.7061 47.7212 32.5002 47.3755C32.1914 46.8496 32.3605 46.1659 32.8752 45.8579C32.9634 45.8053 41.5811 40.3957 41.5811 30.5006C41.5811 15.2335 24.5958 4.24155 24.4267 4.13636C23.9193 3.81329 23.7649 3.12958 24.0811 2.61116C24.3973 2.09274 25.059 1.92745 25.5664 2.25052C25.7502 2.37073 30.1546 5.18823 34.6178 10.0569C40.5958 16.5709 43.7502 23.641 43.7502 30.5006C43.7502 41.6729 34.3826 47.5183 33.9855 47.7587C33.809 47.8639 33.6178 47.9165 33.434 47.9165Z" fill="white"/>
<path d="M25.4043 27.9529C25.2131 27.6148 24.8087 27.5097 24.6322 27.8628C23.9705 29.1701 22.8969 31.8148 20.941 34.5572C18.1028 38.5392 19.419 42.1982 20.1322 43.22C20.8455 44.2493 21.9558 46.8039 24.9999 46.8039C28.044 46.8039 29.1616 44.2493 29.8749 43.22C30.5881 42.1907 31.9043 38.5392 29.066 34.5572C27.1469 31.8749 26.1249 29.2527 25.4043 27.9529Z" fill="white"/>
<path d="M16.5662 47.9163C16.375 47.9163 16.1838 47.8638 16.0147 47.7586C15.6176 47.5181 6.25 41.6728 6.25 30.5005C6.25 23.6408 9.40441 16.5708 15.375 10.0567C19.8382 5.18806 24.2426 2.37057 24.4338 2.25035C24.9412 1.92728 25.6103 2.08506 25.9191 2.61099C26.2353 3.12941 26.0809 3.81312 25.5735 4.1362C25.3971 4.2489 8.41176 15.2334 8.41176 30.5005C8.41176 40.4256 17.0368 45.7976 17.1176 45.8577C17.6324 46.1733 17.8015 46.8494 17.4926 47.3754C17.2941 47.721 16.9338 47.9163 16.5662 47.9163Z" fill="white"/>
</svg>
