<svg width="233" height="45" viewBox="0 0 233 45" fill="none" xmlns="http://www.w3.org/2000/svg">
<g clip-path="url(#clip0_380_2221)">
<path d="M15.6891 32.2204L3.62028 25.2129C2.01712 24.2838 0 25.4293 0 27.2689V41.2838C0 43.1271 2.01712 44.2726 3.62028 43.3398L15.6929 36.3323C17.2772 35.4107 17.2772 33.1383 15.6929 32.2166L15.6891 32.2204Z" fill="#3B89FF"/>
<path d="M13.6871 1.04492H5.54708C2.48351 1.04492 0 3.50736 0 6.54492V14.6158C0 17.6534 2.48351 20.1158 5.54708 20.1158H13.6871C16.7506 20.1158 19.2341 17.6534 19.2341 14.6158V6.54492C19.2341 3.50736 16.7506 1.04492 13.6871 1.04492Z" fill="#FF5299"/>
<path d="M43.2776 10.5804C43.2776 5.31409 38.9719 1.04492 33.6605 1.04492C28.3492 1.04492 24.0435 5.31409 24.0435 10.5804C24.0435 15.8467 28.3492 20.1158 33.6605 20.1158C38.9719 20.1158 43.2776 15.8467 43.2776 10.5804Z" fill="#00B439"/>
<path d="M31.4421 28.5522C31.4421 26.5265 29.7858 24.8843 27.7428 24.8843C25.6997 24.8843 24.0435 26.5265 24.0435 28.5522V40.2873C24.0435 42.313 25.6997 43.9552 27.7428 43.9552C29.7858 43.9552 31.4421 42.313 31.4421 40.2873V28.5522Z" fill="#FFA300"/>
<path d="M43.2775 28.5522C43.2775 26.5265 41.6213 24.8843 39.5782 24.8843C37.5351 24.8843 35.8789 26.5265 35.8789 28.5522V40.2873C35.8789 42.313 37.5351 43.9552 39.5782 43.9552C41.6213 43.9552 43.2775 42.313 43.2775 40.2873V28.5522Z" fill="#FFA300"/>
<path d="M91.7901 28.2651H70.3394C68.7024 28.2651 67.4868 28.6719 66.7304 29.4778C65.9778 30.2763 65.5977 31.3995 65.5977 32.8248V40.295C65.5977 41.7204 65.9778 42.8435 66.7304 43.642C67.4906 44.448 68.7024 44.8547 70.3394 44.8547H91.7901C93.4271 44.8547 94.6427 44.448 95.3991 43.642C96.1518 42.8435 96.5319 41.7166 96.5319 40.295V32.8248C96.5319 31.4032 96.1518 30.2763 95.3991 29.4778C94.6389 28.6719 93.4234 28.2651 91.7901 28.2651ZM89.8784 35.2054V37.9181C89.8784 38.4778 89.7768 38.8883 89.5886 39.0972C89.4117 39.295 89.0429 39.3995 88.5273 39.3995H73.6511C73.1318 39.3995 72.7667 39.295 72.5898 39.0972C72.4017 38.8883 72.3001 38.4778 72.3001 37.9181V35.2054C72.3001 34.6457 72.4017 34.2353 72.5898 34.0263C72.7667 33.8286 73.1355 33.7241 73.6511 33.7241H88.5273C89.0467 33.7241 89.4117 33.8286 89.5886 34.0263C89.7768 34.239 89.8784 34.6457 89.8784 35.2054Z" fill="#444444"/>
<path d="M95.5196 0.880597C94.861 0.294776 94.0707 0 93.1826 0C92.2944 0 91.4665 0.298507 90.8381 0.88806C90.2021 1.48134 89.8784 2.30224 89.8784 3.32463V23.8321C89.8784 24.8582 90.2021 25.6716 90.8418 26.25C91.4703 26.8209 92.2568 27.1082 93.1826 27.1082C94.1083 27.1082 94.8572 26.8209 95.5158 26.2537C96.1894 25.6754 96.5357 24.8582 96.5357 23.8284V3.32463C96.5357 2.29851 96.1932 1.47761 95.5233 0.880597H95.5196Z" fill="#444444"/>
<path d="M73.5871 25.4887C76.1763 25.2686 79.0138 24.8842 82.0131 24.3432C82.2276 24.3096 82.5061 24.235 82.8636 24.1156C83.2475 23.9887 83.605 23.7798 83.9324 23.4925C84.2598 23.2051 84.5232 22.8432 84.7189 22.4178C84.9297 21.9626 84.9598 21.4029 84.8168 20.7499C84.67 20.1268 84.4066 19.6678 84.034 19.3768C83.6878 19.1044 83.3152 18.9216 82.9276 18.832C82.5437 18.7425 82.1599 18.7238 81.7798 18.7798L80.9331 18.8992C79.7965 19.0857 78.7014 19.2536 77.6778 19.3992C76.6429 19.541 75.6381 19.6716 74.686 19.7798C73.7226 19.888 72.7291 19.9775 71.7281 20.041C70.7346 20.1044 69.6808 20.1529 68.582 20.1828C67.7578 20.2387 67.1895 20.1231 66.9412 19.8507C66.674 19.5596 66.5347 19.0447 66.5347 18.3171V16.7872H79.932C80.7712 16.7872 81.4599 16.5186 81.9792 15.985C82.4948 15.4551 82.7582 14.7835 82.7582 13.9887C82.7582 13.2611 82.4986 12.6119 81.9905 12.0484C81.4712 11.4775 80.7788 11.1865 79.9358 11.1865H66.5385V9.70514C66.5385 9.14544 66.6363 8.73499 66.8283 8.52603C67.0051 8.32827 67.3739 8.22379 67.8895 8.22379H80.4175C81.2529 8.22379 81.9416 7.9626 82.4572 7.44767C82.9765 6.93275 83.2399 6.26857 83.2399 5.47006C83.2399 4.74618 82.984 4.08573 82.476 3.51111C81.9567 2.92155 81.2605 2.62305 80.4175 2.62305H64.5816C62.9446 2.62305 61.729 3.02976 60.9726 3.83573C60.2199 4.63424 59.8398 5.76111 59.8398 7.18275V19.8357C59.8398 20.6977 59.9603 21.5036 60.1936 22.2313C60.4307 22.9738 60.7957 23.6342 61.2737 24.1902C61.7591 24.7574 62.3876 25.2014 63.1478 25.5074C63.8252 25.7835 64.6155 25.9216 65.4998 25.9216C65.5977 25.9216 65.6955 25.9216 65.7934 25.9178C68.375 25.8544 70.998 25.7089 73.5909 25.4887H73.5871Z" fill="#444444"/>
<path d="M107.509 13.1158C107.016 13.6606 106.764 14.3211 106.764 15.0785C106.764 15.9069 107.02 16.5785 107.521 17.0785C108.021 17.5785 108.736 17.8285 109.636 17.8285H138.624C139.456 17.8285 140.144 17.5785 140.679 17.086C141.221 16.586 141.496 15.9106 141.496 15.0748C141.496 14.3136 141.225 13.6494 140.694 13.1009C140.16 12.5524 139.463 12.2726 138.624 12.2726H134.887L135.12 6.30988H138.383C139.215 6.30988 139.904 6.05988 140.438 5.56734C140.98 5.06734 141.255 4.39197 141.255 3.55614C141.255 2.79495 140.984 2.13077 140.453 1.58226C139.919 1.03376 139.222 0.753906 138.383 0.753906H109.876C108.969 0.753906 108.254 1.03749 107.75 1.58973C107.257 2.1345 107.005 2.79495 107.005 3.55241C107.005 4.38077 107.261 5.05615 107.761 5.55241C108.266 6.05241 108.977 6.30241 109.876 6.30241H113.135L113.327 12.2651H109.636C108.729 12.2651 108.014 12.545 107.509 13.1009V13.1158ZM119.864 6.31734H128.426L128.14 12.28H120.079L119.864 6.31734Z" fill="#444444"/>
<path d="M139.979 40.1867C139.463 39.7277 138.778 39.4964 137.954 39.4964H115.687C115.152 39.4964 115.152 39.321 115.152 39.2016V38.7725C115.152 38.6792 115.175 38.6158 115.235 38.5598C115.235 38.5598 115.322 38.4777 115.687 38.4777H135.075C136.712 38.4777 137.928 38.071 138.684 37.265C139.437 36.4665 139.817 35.3397 139.817 33.918V31.3956C139.817 29.974 139.437 28.8471 138.684 28.0486C137.924 27.2427 136.709 26.8359 135.075 26.8359H111.273C110.433 26.8359 109.745 27.1046 109.225 27.6382C108.71 28.168 108.446 28.8061 108.446 29.5374C108.446 30.3397 108.713 30.9927 109.237 31.4777C109.756 31.9553 110.437 32.1941 111.269 32.1941H132.625C132.825 32.1941 132.99 32.224 133.115 32.28C133.133 32.2874 133.16 32.3583 133.16 32.4889V32.8695C133.16 32.9553 133.16 33.1158 132.625 33.1158H113.188C111.551 33.1158 110.335 33.5225 109.579 34.3285C108.826 35.127 108.446 36.2538 108.446 37.6755V40.2912C108.446 41.7165 108.826 42.8397 109.579 43.6382C110.339 44.4441 111.551 44.8509 113.188 44.8509H137.95C138.79 44.8509 139.482 44.571 140.001 44.0188C140.513 43.474 140.773 42.8285 140.773 42.0971C140.773 41.2912 140.506 40.6456 139.975 40.1755L139.979 40.1867Z" fill="#444444"/>
<path d="M144.341 20.3845C143.806 19.836 143.11 19.5562 142.271 19.5562H105.797C104.89 19.5562 104.175 19.836 103.671 20.392C103.178 20.9368 102.926 21.5972 102.926 22.3547C102.926 23.183 103.182 23.8584 103.682 24.3547C104.186 24.8547 104.898 25.1047 105.797 25.1047H142.271C143.103 25.1047 143.791 24.8547 144.326 24.3621C144.868 23.8621 145.142 23.1868 145.142 22.3509C145.142 21.5897 144.871 20.9256 144.341 20.377V20.3845Z" fill="#444444"/>
<path d="M185.263 0C184.337 0 183.547 0.298508 182.918 0.88806C182.282 1.48134 181.958 2.30224 181.958 3.32463V41.7239C181.958 42.75 182.282 43.5634 182.922 44.1418C183.55 44.7127 184.341 45 185.263 45C186.185 45 186.926 44.7127 187.554 44.1418C188.194 43.5634 188.518 42.75 188.518 41.7239V3.32463C188.518 2.30224 188.194 1.48134 187.562 0.88806C186.934 0.298508 186.158 0 185.263 0Z" fill="#444444"/>
<path d="M176.675 0.95166C175.745 0.95166 174.962 1.25017 174.349 1.84345C173.732 2.43673 173.419 3.2539 173.419 4.27629V16.4181H172.309C171.466 16.4181 170.778 16.6979 170.258 17.2502C169.746 17.7949 169.487 18.4405 169.487 19.1718C169.487 19.9666 169.75 20.6382 170.266 21.1681C170.785 21.7017 171.474 21.974 172.313 21.974H173.423V39.5412C173.423 40.5636 173.736 41.377 174.357 41.9554C174.97 42.5263 175.753 42.8173 176.678 42.8173C177.604 42.8173 178.342 42.53 178.974 41.9591C179.614 41.3808 179.937 40.5673 179.937 39.5412V4.27629C179.937 3.2539 179.614 2.433 178.978 1.83972C178.349 1.25017 177.574 0.95166 176.678 0.95166H176.675Z" fill="#444444"/>
<path d="M170.71 28.7164C170.36 28.4067 169.98 28.2015 169.585 28.1082C169.205 28.0186 168.817 28 168.437 28.0559L167.583 28.1791C167.082 28.2723 166.454 28.3656 165.709 28.4626C164.956 28.5559 164.181 28.6529 163.383 28.7462C162.593 28.8395 161.817 28.9104 161.076 28.9589C160.331 29.0074 159.703 29.0298 159.179 29.0298C158.363 29.0858 157.813 28.9589 157.58 28.6679C157.317 28.3395 157.181 27.8022 157.181 27.0709V22.2164C157.181 22.0261 157.219 21.8917 157.279 21.8432C157.302 21.8246 157.441 21.735 157.956 21.735H164.339C165.976 21.735 167.191 21.3283 167.948 20.5223C168.701 19.7238 169.081 18.597 169.081 17.1753V8.74623C169.081 7.32458 168.701 6.19772 167.948 5.39921C167.188 4.59324 165.972 4.18652 164.339 4.18652H153.203C152.357 4.18652 151.664 4.48503 151.145 5.07458C150.637 5.64921 150.381 6.30966 150.381 7.03354C150.381 7.83205 150.644 8.49622 151.164 9.01115C151.683 9.52608 152.368 9.78727 153.207 9.78727H161.558C161.96 9.78727 162.156 9.84324 162.254 9.89175C162.269 9.89921 162.333 9.98876 162.333 10.2723V15.6492C162.333 15.8395 162.295 15.9738 162.235 16.0223C162.213 16.041 162.073 16.1306 161.558 16.1306H155.224C153.587 16.1306 152.372 16.5373 151.615 17.3432C150.863 18.1417 150.482 19.2686 150.482 20.6903V28.5895C150.482 29.4515 150.603 30.2574 150.836 30.985C151.073 31.7276 151.438 32.388 151.916 32.944C152.402 33.5112 153.03 33.9552 153.79 34.2612C154.468 34.5373 155.258 34.6753 156.15 34.6753C156.248 34.6753 156.342 34.6753 156.444 34.6716C158.449 34.6082 160.482 34.5037 162.484 34.3619C164.493 34.2201 166.578 33.9701 168.685 33.6194C168.889 33.5858 169.163 33.5223 169.517 33.4216C169.901 33.3134 170.262 33.1194 170.59 32.8507C170.917 32.5783 171.184 32.235 171.384 31.8209C171.594 31.3806 171.628 30.8283 171.485 30.1753C171.339 29.5298 171.083 29.041 170.721 28.7164H170.71Z" fill="#444444"/>
<path d="M231.987 0.880597C231.329 0.294776 230.542 0 229.65 0C228.758 0 227.934 0.298507 227.306 0.88806C226.67 1.48134 226.346 2.30224 226.346 3.32463V41.5821C226.346 42.6082 226.67 43.4179 227.31 44C227.938 44.5709 228.725 44.8582 229.65 44.8582C230.576 44.8582 231.325 44.5709 231.984 44.0075C232.657 43.4291 233.003 42.6119 233.003 41.5821V3.32463C233.003 2.29851 232.661 1.47388 231.991 0.880597H231.987Z" fill="#444444"/>
<path d="M217.386 8.10827C216.396 6.66798 215.116 5.52618 213.581 4.70529C212.046 3.88813 210.168 3.47021 208.004 3.47021C205.84 3.47021 203.962 3.88439 202.427 4.70529C200.891 5.52245 199.612 6.66798 198.622 8.10827C197.64 9.53738 196.917 11.2389 196.477 13.1605C196.04 15.0635 195.818 17.168 195.818 19.4068C195.818 21.6456 196.04 23.7463 196.477 25.6493C196.917 27.5747 197.64 29.2725 198.622 30.7016C199.612 32.1419 200.891 33.2874 202.427 34.1045C203.962 34.9217 205.84 35.3396 208.004 35.3396C210.168 35.3396 212.046 34.9254 213.581 34.1045C215.116 33.2874 216.396 32.1419 217.386 30.7016C218.368 29.2725 219.09 27.5747 219.531 25.6493C219.967 23.7426 220.189 21.6419 220.189 19.4031C220.189 17.1642 219.967 15.0635 219.531 13.1568C219.09 11.2351 218.368 9.53365 217.386 8.10454V8.10827ZM213.532 19.4068C213.532 22.571 213.077 25.1083 212.177 26.9516C211.308 28.7314 209.946 29.5971 208.004 29.5971C206.062 29.5971 204.7 28.7314 203.83 26.9516C202.931 25.1083 202.476 22.571 202.476 19.4068C202.476 16.2426 202.931 13.7016 203.83 11.862C204.696 10.0822 206.062 9.21648 208.004 9.21648C209.946 9.21648 211.308 10.0822 212.177 11.862C213.077 13.7053 213.532 16.2463 213.532 19.4105V19.4068Z" fill="#444444"/>
</g>
<defs>
<clipPath id="clip0_380_2221">
<rect width="233" height="45" fill="white"/>
</clipPath>
</defs>
</svg>
