<svg width="50" height="50" viewBox="0 0 50 50" fill="none" xmlns="http://www.w3.org/2000/svg">
<circle opacity="0.6" cx="25" cy="25" r="25" fill="black"/>
<g clip-path="url(#clip0_72_634)">
<path d="M31.858 24.4465C31.7598 24.2768 31.6289 24.1496 31.4435 24.0435L21.8544 18.189C21.6471 18.0617 21.4398 17.998 21.2435 17.998C21.0471 17.998 20.8398 18.0511 20.6326 18.1465C20.4253 18.2738 20.2617 18.4223 20.1635 18.592C20.0544 18.7617 20.0107 18.9526 20.0107 19.1859V30.8526C20.0107 31.0859 20.0653 31.2768 20.1635 31.4465C20.2726 31.6162 20.4253 31.7435 20.6326 31.8496C20.7417 31.9026 20.8398 31.945 20.9271 31.9662C21.0144 31.998 21.1126 32.0087 21.2217 32.0087C21.3307 32.0087 21.4289 32.0087 21.538 31.9662C21.6471 31.945 21.7453 31.892 21.8544 31.8177L31.4544 25.995C31.6398 25.889 31.7707 25.7617 31.8689 25.592C31.9562 25.4223 32.0107 25.2314 32.0107 24.998C32.0107 24.7965 31.9671 24.6056 31.8689 24.4465H31.858Z" fill="white"/>
</g>
<defs>
<clipPath id="clip0_72_634">
<rect width="12" height="14" fill="white" transform="translate(20 17.998)"/>
</clipPath>
</defs>
</svg>
